<svg width="110" height="66" viewBox="0 0 110 66" fill="none" xmlns="http://www.w3.org/2000/svg">
<path d="M96.6281 51.9277H13.512V66H96.6281V51.9277Z" fill="#D7649D"/>
<path fill-rule="evenodd" clip-rule="evenodd" d="M65.6304 18.4929C63.4459 18.4929 61.2947 19.0248 59.3658 20.0419C57.4369 21.0591 55.7892 22.5304 54.5673 24.3266C54.1195 24.985 53.2184 25.1586 52.5547 24.7143C51.8909 24.2701 51.7159 23.3763 52.1638 22.7179C53.6511 20.5314 55.6568 18.7405 58.0048 17.5024C60.3528 16.2643 62.9713 15.6168 65.6304 15.6168C68.2896 15.6168 70.9081 16.2643 73.256 17.5024C75.604 18.7405 77.6097 20.5314 79.0971 22.7179C79.5449 23.3763 79.3699 24.2701 78.7062 24.7143C78.0424 25.1586 77.1414 24.985 76.6935 24.3266C75.4716 22.5304 73.8239 21.0591 71.895 20.0419C69.9661 19.0248 67.815 18.4929 65.6304 18.4929Z" fill="white"/>
<path d="M71.39 5.6515H59.3219C57.6519 5.6515 56.2982 6.99436 56.2982 8.65085V9.44999C56.2982 11.1065 57.6519 12.4493 59.3219 12.4493H71.39C73.06 12.4493 74.4138 11.1065 74.4138 9.44999V8.65085C74.4138 6.99436 73.06 5.6515 71.39 5.6515Z" fill="white"/>
<path d="M23.7285 24.5782C25.5941 24.5782 27.1064 23.0781 27.1064 21.2276C27.1064 19.3771 25.5941 17.8769 23.7285 17.8769C21.8629 17.8769 20.3506 19.3771 20.3506 21.2276C20.3506 23.0781 21.8629 24.5782 23.7285 24.5782Z" fill="white"/>
<path fill-rule="evenodd" clip-rule="evenodd" d="M59.8801 3.91836e-07L71.6203 0C72.9198 0.000333746 74.2017 0.298166 75.3661 0.870308C76.5305 1.44245 77.5461 2.27346 78.3338 3.29864L78.3341 3.29903L83.4015 9.899C83.9188 10.5719 84.5856 11.1172 85.3502 11.4926C86.1147 11.868 86.9563 12.0632 87.8093 12.0631H89.6321C91.8704 12.0631 94.017 12.9451 95.5997 14.5151C97.1825 16.085 98.0717 18.2143 98.0717 20.4346V31.4048C98.0717 32.199 97.4226 32.8428 96.6219 32.8428C95.8212 32.8428 95.1722 32.199 95.1722 31.4048V20.4346C95.1722 18.9771 94.5885 17.5794 93.5495 16.5488C92.5105 15.5182 91.1014 14.9392 89.6321 14.9392H87.8097C86.5104 14.9393 85.2284 14.6419 84.0639 14.0702C82.8994 13.4985 81.8837 12.6678 81.0958 11.6429L76.0277 5.04201C75.5105 4.36886 74.8437 3.82321 74.0791 3.44754C73.3146 3.07192 72.4731 2.87636 71.62 2.87609H59.8816C59.0026 2.87677 58.1363 3.08486 57.3543 3.48316C56.5724 3.88146 55.8971 4.45855 55.3844 5.16676L55.384 5.16722L50.8521 11.439C50.0717 12.5215 49.0422 13.4037 47.8491 14.0125C46.6561 14.6213 45.3338 14.9389 43.9922 14.9392H20.5018C19.0325 14.9392 17.6233 15.5182 16.5844 16.5488C15.5454 17.5794 14.9617 18.9771 14.9617 20.4346V31.4048C14.9617 32.199 14.3126 32.8428 13.512 32.8428C12.7113 32.8428 12.0622 32.199 12.0622 31.4048V20.4346C12.0622 18.2143 12.9514 16.085 14.5341 14.5151C16.1169 12.9451 18.2635 12.0631 20.5018 12.0631H43.9919C44.8723 12.0629 45.7399 11.8544 46.5228 11.4549C47.3058 11.0554 47.9814 10.4764 48.4936 9.76601L53.0288 3.48979C53.8098 2.41073 54.8385 1.53149 56.0298 0.924681C57.2212 0.317874 58.5409 0.000920324 59.8801 3.91836e-07Z" fill="white"/>
<path d="M36.9109 10.6744H26.5203C25.8612 10.6744 25.229 10.4147 24.763 9.95234C24.2969 9.49002 24.035 8.86299 24.035 8.20917C24.035 6.85536 25.6919 5.79531 26.5203 5.74395C28.2062 5.23037 34.8294 5.23037 36.9109 5.74395C37.6834 5.86927 39.3962 6.85125 39.3962 8.20917C39.3962 8.86299 39.1343 9.49002 38.6682 9.95234C38.2022 10.4147 37.57 10.6744 36.9109 10.6744Z" fill="white"/>
<path d="M4.58738 48.2278L4.19073 45.5763H2.22471L1.82805 48.2278H0L2.00051 36.2533H4.44941L6.44993 48.2278H4.58738ZM2.46615 43.8315H3.94929L3.20772 38.8192L2.46615 43.8315Z" fill="white"/>
<path d="M13.5534 39.9825H11.7254V38.9732C11.7254 38.2205 11.2942 37.7929 10.6217 37.7929C9.94907 37.7929 9.51793 38.2205 9.51793 38.9732V45.5079C9.51793 46.2606 9.94907 46.6883 10.6217 46.6883C11.2942 46.6883 11.7254 46.2606 11.7254 45.5079V43.3867H10.6217V41.676H13.5534V45.5079C13.5534 47.2357 12.3807 48.3989 10.6217 48.3989C8.86259 48.3989 7.68987 47.2357 7.68987 45.5079V38.9732C7.68987 37.2454 8.86259 36.0822 10.6217 36.0822C12.3807 36.0822 13.5534 37.2454 13.5534 38.9732V39.9825Z" fill="white"/>
<path d="M15.3228 48.2278V36.2533H18.1856C19.9274 36.2533 21.0484 37.3823 21.0484 39.1101V45.371C21.0484 47.0988 19.9274 48.2278 18.1856 48.2278H15.3228ZM17.1508 46.5172H18.0993C18.8064 46.5172 19.2203 46.1066 19.2203 45.4053V39.0758C19.2203 38.3745 18.8064 37.9639 18.0993 37.9639H17.1508V46.5172Z" fill="white"/>
<path d="M26.3372 48.2278V36.2533H29.2C30.9418 36.2533 32.0628 37.3823 32.0628 39.1101V40.5128C32.0628 42.2406 30.9418 43.3696 29.2 43.3696H28.1652V48.2278H26.3372ZM28.1652 41.6589H29.1137C29.8208 41.6589 30.2347 41.2484 30.2347 40.547V39.0758C30.2347 38.3745 29.8208 37.9639 29.1137 37.9639H28.1652V41.6589Z" fill="white"/>
<path d="M39.5974 48.2278H37.7004L36.3725 43.2841H35.4239V48.2278H33.5959V36.2533H36.4587C38.2005 36.2533 39.3215 37.3823 39.3215 39.1101V40.4273C39.3215 41.5392 38.8558 42.3945 38.0625 42.8735L39.5974 48.2278ZM35.4239 37.9639V41.5734H36.3725C37.0795 41.5734 37.4934 41.1628 37.4934 40.4615V39.0758C37.4934 38.3745 37.0795 37.9639 36.3725 37.9639H35.4239Z" fill="white"/>
<path d="M43.867 48.3989C42.1079 48.3989 40.9352 47.2357 40.9352 45.5079V38.9732C40.9352 37.2454 42.1079 36.0822 43.867 36.0822C45.626 36.0822 46.7987 37.2454 46.7987 38.9732V45.5079C46.7987 47.2357 45.626 48.3989 43.867 48.3989ZM43.867 46.6883C44.5396 46.6883 44.9707 46.2606 44.9707 45.5079V38.9732C44.9707 38.2205 44.5396 37.7929 43.867 37.7929C43.1944 37.7929 42.7632 38.2205 42.7632 38.9732V45.5079C42.7632 46.2606 43.1944 46.6883 43.867 46.6883Z" fill="white"/>
<path d="M48.6523 48.2278V36.2533H51.5151C53.2569 36.2533 54.3779 37.3823 54.3779 39.1101V45.371C54.3779 47.0988 53.2569 48.2278 51.5151 48.2278H48.6523ZM50.4803 46.5172H51.4288C52.1359 46.5172 52.5498 46.1066 52.5498 45.4053V39.0758C52.5498 38.3745 52.1359 37.9639 51.4288 37.9639H50.4803V46.5172Z" fill="white"/>
<path d="M58.9907 48.3989C57.3179 48.3989 56.1452 47.2699 56.1452 45.5934V36.2533H57.9732V45.5934C57.9732 46.2948 58.4044 46.6883 58.9907 46.6883C59.5771 46.6883 60.0082 46.2948 60.0082 45.5934V36.2533H61.8018V45.5934C61.8018 47.2699 60.6636 48.3989 58.9907 48.3989Z" fill="white"/>
<path d="M66.4331 48.3989C64.7258 48.3989 63.5703 47.2357 63.5703 45.5592V38.9219C63.5703 37.2454 64.7258 36.0822 66.4331 36.0822C68.1404 36.0822 69.2959 37.2454 69.2959 38.9219V40.3246H67.5023V38.9219C67.5023 38.2205 67.0712 37.7929 66.4503 37.7929C65.8295 37.7929 65.3983 38.2205 65.3983 38.9219V45.5592C65.3983 46.2606 65.8295 46.6883 66.4503 46.6883C67.0712 46.6883 67.5023 46.2606 67.5023 45.5592V43.8486H69.2959V45.5592C69.2959 47.2357 68.1404 48.3989 66.4331 48.3989Z" fill="white"/>
<path d="M73.7423 48.3989C72.035 48.3989 70.8795 47.2357 70.8795 45.5592V38.9219C70.8795 37.2454 72.035 36.0822 73.7423 36.0822C75.4497 36.0822 76.6051 37.2454 76.6051 38.9219V40.3246H74.8116V38.9219C74.8116 38.2205 74.3804 37.7929 73.7596 37.7929C73.1387 37.7929 72.7076 38.2205 72.7076 38.9219V45.5592C72.7076 46.2606 73.1387 46.6883 73.7596 46.6883C74.3804 46.6883 74.8116 46.2606 74.8116 45.5592V43.8486H76.6051V45.5592C76.6051 47.2357 75.4497 48.3989 73.7423 48.3989Z" fill="white"/>
<path d="M78.2766 48.2278V36.2533H80.1047V48.2278H78.2766Z" fill="white"/>
<path d="M84.8762 48.3989C83.1172 48.3989 81.9445 47.2357 81.9445 45.5079V38.9732C81.9445 37.2454 83.1172 36.0822 84.8762 36.0822C86.6353 36.0822 87.808 37.2454 87.808 38.9732V45.5079C87.808 47.2357 86.6353 48.3989 84.8762 48.3989ZM84.8762 46.6883C85.5488 46.6883 85.98 46.2606 85.98 45.5079V38.9732C85.98 38.2205 85.5488 37.7929 84.8762 37.7929C84.2037 37.7929 83.7725 38.2205 83.7725 38.9732V45.5079C83.7725 46.2606 84.2037 46.6883 84.8762 46.6883Z" fill="white"/>
<path d="M89.6615 48.2278V36.2533H91.6793L94.0075 44.2933V36.2533H95.801V48.2278H93.8695L91.4551 40.5641V48.2278H89.6615Z" fill="white"/>
<path d="M97.796 48.2278V36.2533H102.987V37.9639H99.6241V41.2997H102.297V43.0103H99.6241V46.5172H102.987V48.2278H97.796Z" fill="white"/>
<path d="M107.051 48.3989C105.309 48.3989 104.102 47.1672 104.102 45.4566V45.0289L105.861 44.8407V45.2855C105.861 46.158 106.309 46.6883 107.034 46.6883C107.758 46.6883 108.206 46.2435 108.206 45.5421C108.206 44.7894 107.896 44.242 106.534 42.959C104.723 41.2655 104.205 40.3417 104.205 39.0245C104.205 37.2454 105.24 36.0822 106.982 36.0822C108.724 36.0822 109.759 37.2454 109.759 39.0416V39.3495L107.999 39.5377V39.1956C107.999 38.2718 107.637 37.7929 106.999 37.7929C106.361 37.7929 105.999 38.1863 105.999 38.939C105.999 39.6917 106.378 40.2391 107.672 41.5221C109.431 43.2669 110 44.1394 110 45.4566C110 47.1672 108.793 48.3989 107.051 48.3989Z" fill="white"/>
<path d="M20.589 61.1764H19.7699V54.6628H23.7563V55.394H20.589V57.6329H23.4969V58.3552H20.589V61.1764Z" fill="white"/>
<path d="M26.3502 61.2576C25.0396 61.2576 24.1568 60.3233 24.1568 58.8291C24.1568 57.3305 25.0396 56.4006 26.3502 56.4006C27.6563 56.4006 28.5391 57.3305 28.5391 58.8291C28.5391 60.3233 27.6563 61.2576 26.3502 61.2576ZM26.3502 60.567C27.1875 60.567 27.7336 59.9351 27.7336 58.8291C27.7336 57.7232 27.1875 57.0913 26.3502 57.0913C25.5129 57.0913 24.9623 57.7232 24.9623 58.8291C24.9623 59.9351 25.5129 60.567 26.3502 60.567Z" fill="white"/>
<path d="M29.5949 55.3489H30.3867V56.4819H31.3059V57.1274H30.3867V59.917C30.3867 60.3458 30.5687 60.5399 30.9737 60.5399C31.0647 60.5399 31.2468 60.5264 31.3014 60.5174V61.1764C31.2058 61.199 30.9874 61.2125 30.8008 61.2125C29.9316 61.2125 29.5949 60.8604 29.5949 59.9576V57.1274H28.8895V56.4819H29.5949V55.3489Z" fill="white"/>
<path d="M33.9772 61.2576C32.6666 61.2576 31.7837 60.3233 31.7837 58.8291C31.7837 57.3305 32.6666 56.4006 33.9772 56.4006C35.2832 56.4006 36.1661 57.3305 36.1661 58.8291C36.1661 60.3233 35.2832 61.2576 33.9772 61.2576ZM33.9772 60.567C34.8145 60.567 35.3606 59.9351 35.3606 58.8291C35.3606 57.7232 34.8145 57.0913 33.9772 57.0913C33.1399 57.0913 32.5892 57.7232 32.5892 58.8291C32.5892 59.9351 33.1399 60.567 33.9772 60.567Z" fill="white"/>
<path d="M38.8919 60.5219C39.7156 60.5219 40.2662 59.8448 40.2662 58.8111C40.2662 57.7774 39.7156 57.0913 38.8919 57.0913C38.0773 57.0913 37.5449 57.7593 37.5449 58.8111C37.5449 59.8628 38.0773 60.5219 38.8919 60.5219ZM38.9192 62.9459C37.8771 62.9459 37.0534 62.3636 36.9215 61.5646H37.736C37.8908 61.9934 38.3595 62.2778 38.9511 62.2778C39.7702 62.2778 40.2662 61.8083 40.2662 61.1087V60.3684H40.248C39.9568 60.8785 39.397 61.2125 38.7326 61.2125C37.5267 61.2125 36.7349 60.2691 36.7349 58.8111C36.7349 57.3395 37.5267 56.4006 38.7509 56.4006C39.4198 56.4006 39.975 56.7256 40.289 57.2718H40.3026V56.4819H41.058V61.0816C41.058 62.2011 40.2253 62.9459 38.9192 62.9459Z" fill="white"/>
<path d="M42.0911 61.1764V56.4819H42.8374V57.2493H42.8556C43.0103 56.7302 43.4472 56.4006 44.0023 56.4006C44.1389 56.4006 44.2572 56.4232 44.3209 56.4322V57.1951C44.2572 57.1725 44.0888 57.15 43.8977 57.15C43.2833 57.15 42.8829 57.5878 42.8829 58.2514V61.1764H42.0911Z" fill="white"/>
<path d="M46.437 60.5896C47.1833 60.5896 47.7567 60.0705 47.7567 59.3934V59.0097L46.4916 59.0864C45.8545 59.1271 45.4904 59.4069 45.4904 59.8493C45.4904 60.2962 45.8681 60.5896 46.437 60.5896ZM46.2595 61.2576C45.3175 61.2576 44.6849 60.6934 44.6849 59.8493C44.6849 59.0458 45.3084 58.5402 46.4006 58.4771L47.7567 58.4003V58.0076C47.7567 57.4343 47.3744 57.0913 46.7191 57.0913C46.1093 57.0913 45.7271 57.3757 45.6269 57.8361H44.8624C44.917 57.0236 45.6178 56.4006 46.7373 56.4006C47.8477 56.4006 48.5485 56.9965 48.5485 57.9309V61.1764H47.7976V60.3684H47.7794C47.4973 60.9056 46.8966 61.2576 46.2595 61.2576Z" fill="white"/>
<path d="M49.809 61.1764V57.1274H49.1492V56.4819H49.809V55.9583C49.809 55.0555 50.2322 54.6267 51.106 54.6267C51.2834 54.6267 51.4746 54.6447 51.5883 54.6628V55.2992C51.4928 55.2857 51.3608 55.2722 51.2288 55.2722C50.8011 55.2722 50.5963 55.4978 50.5963 55.9628V56.4819H51.5656V57.1274H50.6008V61.1764H49.809Z" fill="white"/>
<path d="M52.4257 61.1764V56.4819H53.2175V61.1764H52.4257ZM52.8216 55.6919C52.5531 55.6919 52.3301 55.4708 52.3301 55.2044C52.3301 54.9336 52.5531 54.7169 52.8216 54.7169C53.0946 54.7169 53.3176 54.9336 53.3176 55.2044C53.3176 55.4708 53.0946 55.6919 52.8216 55.6919Z" fill="white"/>
<path d="M55.8478 60.5896C56.5941 60.5896 57.1675 60.0705 57.1675 59.3934V59.0097L55.9024 59.0864C55.2653 59.1271 54.9012 59.4069 54.9012 59.8493C54.9012 60.2962 55.279 60.5896 55.8478 60.5896ZM55.6703 61.2576C54.7283 61.2576 54.0958 60.6934 54.0958 59.8493C54.0958 59.0458 54.7192 58.5402 55.8114 58.4771L57.1675 58.4003V58.0076C57.1675 57.4343 56.7852 57.0913 56.1299 57.0913C55.5201 57.0913 55.1379 57.3757 55.0378 57.8361H54.2733C54.3279 57.0236 55.0287 56.4006 56.1481 56.4006C57.2585 56.4006 57.9593 56.9965 57.9593 57.9309V61.1764H57.2084V60.3684H57.1902C56.9081 60.9056 56.3074 61.2576 55.6703 61.2576Z" fill="white"/>
<path d="M65.6454 61.1764L65.0356 60.5219C64.4804 61.0094 63.7159 61.2847 62.9378 61.2847C61.6408 61.2847 60.7352 60.5264 60.7352 59.443C60.7352 58.6802 61.1539 58.0934 62.0231 57.6375C62.155 57.5698 62.237 57.5246 62.2734 57.5111C61.6863 56.8927 61.4588 56.4729 61.4588 55.9989C61.4588 55.1728 62.1687 54.5544 63.1152 54.5544C64.08 54.5544 64.7762 55.1638 64.7762 56.0079C64.7762 56.6715 64.3712 57.1545 63.3701 57.6781L64.9947 59.416C65.2086 59.0187 65.3087 58.4861 65.3087 57.6826V57.4885H66.0641V57.6871C66.0641 58.6802 65.8821 59.4024 65.5226 59.9621L66.6739 61.1764H65.6454ZM62.4918 58.1114C61.8137 58.5222 61.5452 58.8878 61.5452 59.3889C61.5452 60.1156 62.1368 60.6076 63.0106 60.6076C63.5976 60.6076 64.2074 60.3729 64.5578 60.0028L62.7102 57.9941C62.6511 58.0211 62.5327 58.0843 62.4918 58.1114ZM62.9332 57.2222C63.7205 56.825 64.0117 56.4999 64.0117 56.035C64.0117 55.5385 63.6522 55.1909 63.1198 55.1909C62.601 55.1909 62.2324 55.5475 62.2324 56.044C62.2324 56.4006 62.4235 56.7166 62.9332 57.2222Z" fill="white"/>
<path d="M71.8526 61.1764H71.0425L68.6216 54.6628H69.4817L71.4339 60.1878H71.4612L73.4135 54.6628H74.2735L71.8526 61.1764Z" fill="white"/>
<path d="M74.806 61.1764V56.4819H75.5978V61.1764H74.806ZM75.2019 55.6919C74.9334 55.6919 74.7104 55.4708 74.7104 55.2044C74.7104 54.9336 74.9334 54.7169 75.2019 54.7169C75.4749 54.7169 75.6979 54.9336 75.6979 55.2044C75.6979 55.4708 75.4749 55.6919 75.2019 55.6919Z" fill="white"/>
<path d="M78.4602 61.2576C77.2542 61.2576 76.4351 60.3007 76.4351 58.8291C76.4351 57.3576 77.2497 56.4006 78.442 56.4006C79.12 56.4006 79.6661 56.7302 79.9482 57.2447H79.9664V54.6628H80.7583V61.1764H80.0028V60.3819H79.9892C79.6843 60.9236 79.1428 61.2576 78.4602 61.2576ZM78.6103 57.0913C77.773 57.0913 77.2451 57.7684 77.2451 58.8291C77.2451 59.8944 77.773 60.567 78.6103 60.567C79.4249 60.567 79.971 59.8809 79.971 58.8291C79.971 57.7819 79.4249 57.0913 78.6103 57.0913Z" fill="white"/>
<path d="M83.7253 57.0822C82.9836 57.0822 82.4648 57.6465 82.4147 58.4274H84.9858C84.9677 57.642 84.4716 57.0822 83.7253 57.0822ZM84.9677 59.8312H85.7458C85.6093 60.6528 84.8084 61.2576 83.7754 61.2576C82.4193 61.2576 81.5956 60.3233 81.5956 58.8472C81.5956 57.3892 82.4329 56.4006 83.739 56.4006C85.0177 56.4006 85.805 57.3215 85.805 58.7434V59.0413H82.4102V59.0864C82.4102 59.9847 82.9426 60.576 83.7936 60.576C84.3943 60.576 84.8357 60.2736 84.9677 59.8312Z" fill="white"/>
<path d="M88.5672 61.2576C87.2566 61.2576 86.3738 60.3233 86.3738 58.8291C86.3738 57.3305 87.2566 56.4006 88.5672 56.4006C89.8733 56.4006 90.7561 57.3305 90.7561 58.8291C90.7561 60.3233 89.8733 61.2576 88.5672 61.2576ZM88.5672 60.567C89.4046 60.567 89.9507 59.9351 89.9507 58.8291C89.9507 57.7232 89.4046 57.0913 88.5672 57.0913C87.7299 57.0913 87.1793 57.7232 87.1793 58.8291C87.1793 59.9351 87.7299 60.567 88.5672 60.567Z" fill="white"/>
</svg>
